# xmcd
#
# Track frame offsets: 
#        150
#        19291
#        41040
#        57136
#        74804
#        94397
#        113942
#        129157
#        142850
#        162243
#        180289
#        202094
#        214556
#        236829
#        253000
#
# Disc length: 3607 seconds
#
# Revision: 0
# Processed by: cddbd v1.5.2PL0 Copyright (c) Steve Scherf et al.
# Submitted via: ExactAudioCopy v1.1
#
DISCID=db0e150f
DTITLE=徐小鳳 - 徐小鳳的故事 - Disc 1
DYEAR=2005
DGENRE=Blues
TTITLE0=真愛又如何
TTITLE1=婚紗背後
TTITLE2=橫直線
TTITLE3=雙城記
TTITLE4=變色感情
TTITLE5=某夜
TTITLE6=城市足印
TTITLE7=今宵多珍重
TTITLE8=午夜狂歌
TTITLE9=月亮光光（天涯孤客）
TTITLE10=自己人
TTITLE11=浪子心聲
TTITLE12=流下眼淚前
TTITLE13=誰又欠了誰
TTITLE14=每一步
EXTD=
EXTT0=
EXTT1=
EXTT2=
EXTT3=
EXTT4=
EXTT5=
EXTT6=
EXTT7=
EXTT8=
EXTT9=
EXTT10=
EXTT11=
EXTT12=
EXTT13=
EXTT14=
PLAYORDER=
